<?xml version="1.0" standalone="no"?>
<!DOCTYPE svg PUBLIC "-//W3C//DTD SVG 20010904//EN"
 "http://www.w3.org/TR/2001/REC-SVG-20010904/DTD/svg10.dtd">
<svg version="1.0" xmlns="http://www.w3.org/2000/svg"
 width="238.000000pt" height="53.000000pt" viewBox="0 0 238.000000 53.000000"
 preserveAspectRatio="xMidYMid meet">

<g transform="translate(0.000000,53.000000) scale(0.100000,-0.100000)"
fill="#000000" stroke="none">
<path d="M0 326 l0 -206 114 0 c89 0 118 3 130 15 20 21 29 103 25 239 -5 152
-3 150 -154 154 l-115 4 0 -206z m158 -2 c2 -95 0 -113 -14 -118 -9 -3 -20 -4
-25 0 -5 3 -9 57 -9 120 0 114 0 115 23 112 21 -3 22 -7 25 -114z"/>
<path d="M310 325 l0 -205 50 0 50 0 0 205 0 205 -50 0 -50 0 0 -205z"/>
<path d="M457 523 c-11 -10 -8 -174 3 -233 5 -29 22 -79 36 -111 l27 -59 62 0
62 0 26 58 c37 82 48 144 45 253 l-3 94 -52 3 -52 3 -3 -163 c-3 -155 -4 -163
-23 -163 -19 0 -20 8 -23 163 l-2 162 -49 0 c-26 0 -51 -3 -54 -7z"/>
<path d="M790 517 c-34 -17 -42 -65 -38 -228 2 -97 7 -141 17 -152 11 -14 32
-17 102 -17 l89 0 0 40 0 40 -50 0 -50 0 0 40 0 40 50 0 50 0 0 40 0 40 -50 0
-50 0 0 40 0 40 50 0 50 0 0 45 0 45 -72 0 c-40 0 -84 -6 -98 -13z"/>
<path d="M1000 325 l0 -205 55 0 55 0 0 80 c0 59 3 80 13 80 27 0 37 -25 37
-92 l0 -68 56 0 57 0 -7 37 c-3 21 -6 61 -6 90 0 47 -3 54 -27 67 -16 8 -23
15 -16 16 30 1 43 32 43 100 0 94 -10 100 -152 100 l-108 0 0 -205z m154 93
c13 -21 -2 -51 -28 -56 -13 -3 -16 5 -16 38 0 33 3 41 16 38 9 -2 22 -11 28
-20z"/>
<path d="M1500 522 c-43 -13 -50 -43 -50 -229 l0 -173 55 0 55 0 0 40 c0 36 3
40 25 40 23 0 25 -4 25 -40 l0 -40 55 0 55 0 0 179 c0 224 1 223 -116 227 -43
2 -90 0 -104 -4z m108 -160 c3 -71 3 -72 -23 -72 -24 0 -25 2 -25 68 0 72 4
85 30 80 11 -3 16 -20 18 -76z"/>
<path d="M1760 326 l0 -206 55 0 55 0 0 80 0 80 64 0 c85 0 91 9 91 121 0 121
-2 123 -150 127 l-115 4 0 -206z m156 89 c7 -27 -10 -55 -32 -55 -10 0 -14 13
-14 40 0 33 3 40 20 40 13 0 22 -9 26 -25z"/>
<path d="M2060 366 c0 -91 4 -167 9 -171 5 -3 9 -19 9 -35 -1 -17 2 -33 5 -37
4 -3 7 12 7 35 0 38 2 42 25 42 14 0 25 -5 25 -12 0 -30 19 11 22 47 l3 40 67
5 c36 3 70 9 75 13 4 5 9 50 11 100 5 130 4 131 -142 135 l-116 4 0 -166z
m148 38 c2 -22 -2 -33 -13 -38 -25 -9 -35 2 -35 40 0 31 3 35 23 32 17 -2 23
-11 25 -34z"/>
<path d="M2111 164 c0 -11 3 -14 6 -6 3 7 2 16 -1 19 -3 4 -6 -2 -5 -13z"/>
<path d="M2305 120 c-15 -22 -25 -43 -22 -46 8 -9 28 6 22 16 -3 5 0 12 6 16
7 4 9 3 6 -3 -4 -6 1 -14 11 -18 15 -6 15 -8 -7 -26 -13 -11 -22 -21 -20 -24
7 -7 24 8 49 45 14 20 17 29 8 22 -14 -11 -18 -10 -27 6 -7 13 -7 22 1 30 7 7
9 14 6 17 -3 3 -18 -13 -33 -35z"/>
<path d="M2232 114 c-24 -19 -49 -34 -55 -34 -6 0 -2 7 9 15 16 12 16 14 3 15
-24 0 -46 -28 -28 -35 26 -10 84 1 81 15 -2 7 7 23 19 36 30 32 22 29 -29 -12z"/>
<path d="M1932 117 c-27 -29 -29 -57 -3 -57 11 0 22 4 25 9 4 5 -3 7 -14 4
-28 -7 -25 9 6 41 15 14 22 26 17 26 -5 0 -19 -10 -31 -23z"/>
<path d="M1982 124 c-7 -8 -8 -14 -3 -14 10 0 25 19 20 25 -2 1 -10 -3 -17
-11z"/>
<path d="M2139 127 c-9 -7 -14 -18 -12 -24 3 -7 0 -13 -5 -13 -6 0 -12 6 -15
13 -3 9 -9 7 -24 -5 -25 -22 -34 -23 -26 -2 5 14 2 14 -23 -2 -15 -11 -25 -13
-21 -6 5 7 3 12 -5 12 -8 0 -14 -8 -15 -17 -1 -13 6 -18 23 -18 13 0 24 3 24
6 0 3 20 3 45 -1 25 -4 46 -5 46 -3 3 6 7 23 8 32 0 5 10 13 21 16 11 4 18 11
15 16 -8 12 -17 11 -36 -4z"/>
</g>
</svg>
